<svg xmlns="http://www.w3.org/2000/svg" width="54" height="54" viewBox="0 0 54 54" fill="none">
<path d="M16.11 24.687C18.1958 22.2261 20.987 20.465 24.1061 19.6418C27.2253 18.8187 30.522 18.9732 33.5505 20.0844C36.579 21.1957 39.1933 23.2101 41.0397 25.8554C42.8862 28.5006 43.8759 31.6491 43.875 34.875C43.875 35.7701 44.2306 36.6286 44.8635 37.2615C45.4964 37.8944 46.3549 38.25 47.25 38.25C48.1451 38.25 49.0035 37.8944 49.6365 37.2615C50.2694 36.6286 50.625 35.7701 50.625 34.875C50.625 22.4483 40.5517 12.375 28.125 12.375C24.9787 12.3716 21.8668 13.0298 18.9914 14.3071C16.116 15.5843 13.5413 17.4519 11.4345 19.7888L10.6537 15.3675C10.5846 14.9241 10.4278 14.4989 10.1924 14.1168C9.95695 13.7347 9.64769 13.4033 9.28268 13.1422C8.91767 12.8811 8.50424 12.6954 8.06659 12.596C7.62894 12.4965 7.17586 12.4854 6.73386 12.5632C6.29185 12.641 5.86981 12.8062 5.49241 13.0491C5.11502 13.292 4.78986 13.6077 4.53597 13.9778C4.28207 14.3479 4.10453 14.7649 4.01374 15.2044C3.92296 15.6439 3.92074 16.0971 4.00723 16.5375L6.35173 29.835C6.50698 30.7148 7.00423 31.5 7.73998 32.013C8.64673 32.6475 9.84148 32.7893 10.8562 32.4675L23.5552 30.2265C23.9987 30.1574 24.4239 30.0006 24.806 29.7652C25.1881 29.5297 25.5194 29.2205 25.7805 28.8555C26.0417 28.4904 26.2274 28.077 26.3268 27.6394C26.4262 27.2017 26.4373 26.7486 26.3595 26.3066C26.2817 25.8646 26.1165 25.4426 25.8736 25.0652C25.6308 24.6878 25.315 24.3626 24.945 24.1087C24.5749 23.8548 24.1579 23.6773 23.7184 23.5865C23.2788 23.4957 22.8256 23.4935 22.3852 23.58L16.1122 24.6848L16.11 24.687Z" fill="white"/>
</svg>