<svg width="42" height="46" viewBox="0 0 42 46" fill="none" xmlns="http://www.w3.org/2000/svg">
<path fill-rule="evenodd" clip-rule="evenodd" d="M13.3027 2.35897C13.9044 0.967179 15.2002 0 16.7023 0H25.2978C26.7977 0 28.0934 0.967179 28.6973 2.35897C30.165 2.37313 31.3103 2.44626 32.3332 2.88503C33.5542 3.40936 34.6162 4.30044 35.3975 5.45631C36.1861 6.61928 36.5557 8.11487 37.065 10.1695L37.1445 10.4904L38.4123 15.6023C39.2585 16.0692 39.9997 16.7362 40.5827 17.5555C41.9193 19.4356 42.1557 21.6743 41.9193 24.2408C41.6872 26.7319 40.9738 29.8693 40.0799 33.797L40.0219 34.0447C39.4567 36.5287 38.9968 38.5456 38.4532 40.1191C37.8816 41.7609 37.1596 43.1055 35.9669 44.127C34.7764 45.1484 33.4119 45.5895 31.8239 45.8018C30.3003 46 28.4072 46 26.0757 46H15.9244C13.5928 46 11.6975 46 10.1761 45.7995C8.58596 45.5919 7.22357 45.1484 6.03095 44.1246C4.84047 43.1055 4.11845 41.7609 3.54685 40.1191C3.00103 38.5456 2.54332 36.5287 1.97817 34.0447L1.92015 33.797C1.02622 29.8693 0.310641 26.7319 0.0807108 24.2432C-0.155666 21.6719 0.0807099 19.4356 1.41516 17.5555C2.02329 16.7015 2.75176 16.0693 3.58553 15.6023L4.85336 10.4904L4.93502 10.1695C5.4443 8.11487 5.81391 6.61928 6.60255 5.45395C7.38415 4.29895 8.44606 3.40871 9.66684 2.88503C10.6897 2.44626 11.8329 2.37077 13.3027 2.35897ZM13.3049 5.90451C11.8823 5.92103 11.3129 5.98 10.8401 6.18287C10.1825 6.4652 9.61057 6.94508 9.18979 7.56759C8.81159 8.12667 8.58811 8.90749 7.96493 11.4245L7.20423 14.4817C9.43476 14.1538 12.3143 14.1538 15.89 14.1538H26.1079C29.6858 14.1538 32.5653 14.1538 34.7936 14.4817L34.0351 11.4222C33.4098 8.90513 33.1884 8.12431 32.8102 7.56523C32.3895 6.94272 31.8175 6.46284 31.1599 6.18051C30.6871 5.97764 30.1155 5.91867 28.693 5.90215C28.3876 6.60669 27.9065 7.20178 27.3056 7.61845C26.7047 8.03513 26.0085 8.25633 25.2978 8.25641H16.7023C15.9915 8.25633 15.2953 8.03513 14.6944 7.61845C14.0935 7.20178 13.6125 6.60669 13.307 5.90215M16.7023 3.53846C16.5598 3.53846 16.4231 3.6006 16.3224 3.71119C16.2216 3.82179 16.165 3.9718 16.165 4.12821C16.165 4.28461 16.2216 4.43462 16.3224 4.54522C16.4231 4.65582 16.5598 4.71795 16.7023 4.71795H25.2978C25.4402 4.71795 25.5769 4.65582 25.6776 4.54522C25.7784 4.43462 25.835 4.28461 25.835 4.12821C25.835 3.9718 25.7784 3.82179 25.6776 3.71119C25.5769 3.6006 25.4402 3.53846 25.2978 3.53846H16.7023ZM7.4621 18.0131C5.50662 18.3245 4.55897 18.8907 3.95943 19.7352C3.35775 20.5773 3.08914 21.7214 3.28898 23.8823C3.49312 26.0903 4.14853 28.9776 5.08114 33.0823C5.67853 35.696 6.09111 37.5077 6.56387 38.8617C7.01513 40.1686 7.45995 40.8598 8.01865 41.3387C8.57521 41.8152 9.29294 42.1195 10.5608 42.287C11.8716 42.4592 13.5692 42.4615 16.0275 42.4615H25.9768C28.433 42.4615 30.1349 42.4592 31.4435 42.287C32.7114 42.1218 33.4291 41.8152 33.9857 41.3387C34.5444 40.8598 34.987 40.1686 35.4426 38.8617C35.9111 37.5077 36.3258 35.696 36.921 33.0823C37.8558 28.9776 38.5112 26.0903 38.7132 23.8823C38.9152 21.7214 38.6444 20.575 38.0449 19.7328C37.4454 18.8907 36.4977 18.3245 34.5401 18.0131C32.5416 17.697 29.8297 17.6923 25.9768 17.6923H16.0275C12.1746 17.6923 9.4627 17.697 7.46425 18.0131" fill="#FFA500"/>
</svg>
